<svg xmlns="http://www.w3.org/2000/svg" version="1.1" xmlns:xlink="http://www.w3.org/1999/xlink" xmlns:svgjs="http://svgjs.dev/svgjs" width="1000" height="1000" viewBox="0 0 1000 1000"><rect width="1000" height="1000" fill="#ffffff"></rect><g transform="matrix(0.7,0,0,0.7,150.11857741271155,126.15295546558701)"><svg viewBox="0 0 231 247" data-background-color="#ffffff" preserveAspectRatio="xMidYMid meet" height="1069" width="1000" xmlns="http://www.w3.org/2000/svg" xmlns:xlink="http://www.w3.org/1999/xlink"><g id="tight-bounds" transform="matrix(1,0,0,1,-0.039130323370329734,-0.09999999999999432)"><svg viewBox="0 0 231.07826086956518 247.2" height="247.2" width="231.07826086956518"><g><svg viewBox="0 0 231.07826086956518 247.2" height="247.2" width="231.07826086956518"><g><svg viewBox="0 0 231.07826086956518 247.2" height="247.2" width="231.07826086956518"><g id="textblocktransform"><svg viewBox="0 0 231.07826086956518 247.2" height="247.2" width="231.07826086956518" id="textblock"><g><svg viewBox="0 0 231.07826086956518 247.2" height="247.2" width="231.07826086956518"><g transform="matrix(1,0,0,1,0,0)"><svg width="231.07826086956518" viewBox="3.700000047683716 -38.45000076293945 49.45000076293945 52.900001525878906" height="247.2" data-palette-color="#636365"><path d="M23.65-2.85L23.65-2.85Q24.9-0.7 24.9 1.3L24.9 1.3Q24.9 1.75 24.83 2.13 24.75 2.5 24.65 2.9L24.65 2.9Q23.8 2.8 22.88 2.75 21.95 2.7 20.95 2.7L20.95 2.7Q19.75 2.7 18.53 2.78 17.3 2.85 15.8 3 14.3 3.15 12.45 3.4 10.6 3.65 8.15 4.05L8.15 4.05Q7 3.65 5.85 2.48 4.7 1.3 3.7-0.35L3.7-0.35Q4.2-1.45 4.95-3.08 5.7-4.7 6.7-7.03 7.7-9.35 8.93-12.48 10.15-15.6 11.55-19.7L11.55-19.7Q12.45-22.4 13.1-24.45 13.75-26.5 14.28-28.43 14.8-30.35 15.3-32.45 15.8-34.55 16.4-37.3L16.4-37.3Q18.4-36.9 19.88-35.83 21.35-34.75 22.7-32.75L22.7-32.75Q22.3-32.1 21.65-30.65 21-29.2 20.13-27.13 19.25-25.05 18.2-22.43 17.15-19.8 16-16.8L16-16.8Q14.9-13.85 13.85-11.25 12.8-8.65 11.98-6.55 11.15-4.45 10.65-2.95 10.15-1.45 10.15-0.7L10.15-0.7Q10.95-0.75 11.6-0.8 12.25-0.85 12.95-0.98 13.65-1.1 14.48-1.28 15.3-1.45 16.45-1.75L16.45-1.75Q17.45-2 18.3-2.18 19.15-2.35 19.98-2.48 20.8-2.6 21.68-2.68 22.55-2.75 23.65-2.85ZM28.7 14.45L28.7 14.45Q27.45 13.95 27.2 12.55L27.2 12.55Q27 11.2 25.5 10.35L25.5 10.35Q25.9 7.8 26.4 5.2 26.9 2.6 27.67-0.73 28.45-4.05 29.62-8.47 30.8-12.9 32.6-19.2L32.6-19.2Q30.95-19.2 30-19.15 29.05-19.1 28.15-18.95L28.15-18.95Q27.95-19.15 27.82-19.5 27.7-19.85 27.7-20.15L27.7-20.15Q28.2-20.35 29.75-20.68 31.3-21 33.15-21.25L33.15-21.25Q34.35-25.05 35.9-28.08 37.45-31.1 39.25-33.25 41.05-35.4 43.05-36.55 45.05-37.7 47.1-37.7L47.1-37.7Q47.7-37.7 48.25-37.63 48.8-37.55 49.1-37.55L49.1-37.55Q49.55-37.9 50.3-38.18 51.05-38.45 51.6-38.45L51.6-38.45Q52.2-38.45 53.15-37.8L53.15-37.8Q52.75-37.1 52.3-35.9 51.85-34.7 51.55-33.55L51.55-33.55Q50.3-29.85 48.9-28.75L48.9-28.75Q48.35-28.75 48.3-30.2L48.3-30.2Q48.25-31.25 48-32.25L48-32.25Q47.8-32.7 47.72-33.05 47.65-33.4 47.65-33.95L47.65-33.95Q47.65-34.25 47.7-34.68 47.75-35.1 47.9-36.1L47.9-36.1Q47.05-36.1 46.02-35.05 45-34 43.87-32.08 42.75-30.15 41.6-27.5 40.45-24.85 39.4-21.65L39.4-21.65 43.6-21.8Q43.85-21.55 44.02-20.68 44.2-19.8 44.25-18.85L44.25-18.85 38.75-19.15Q36.85-13.5 35.2-8.35 33.55-3.2 32.25 1.15 30.95 5.5 30.02 8.93 29.1 12.35 28.7 14.45Z" opacity="1" transform="matrix(1,0,0,1,0,0)" fill="#000000" class="wordmark-text-0" data-fill-palette-color="primary" id="text-0"></path></svg></g></svg></g></svg></g></svg></g></svg></g><defs></defs></svg><rect width="231.07826086956518" height="247.2" fill="none" stroke="none" visibility="hidden"></rect></g></svg></g></svg>